<svg xmlns="http://www.w3.org/2000/svg" xmlns:xlink="http://www.w3.org/1999/xlink" viewBox="0 0 24 30" version="1.1" x="0px" y="0px"><title>icon-plus</title><desc>Created with love by @immaulana.</desc><g stroke="none" stroke-width="1" fill="none" fill-rule="evenodd"><path d="M12.5,12.5 L12.5,23 C12.5,23.6666667 11.5,23.6666667 11.5,23 L11.5,12 C11.5,11.7238576 11.7238576,11.5 12,11.5 L23,11.5 C23.6666667,11.5 23.6666667,12.5 23,12.5 L12.5,12.5 Z M11.5,11.5 L11.5,1 C11.5,0.333333333 12.5,0.333333333 12.5,1 L12.5,12 C12.5,12.2761424 12.2761424,12.5 12,12.5 L1,12.5 C0.333333333,12.5 0.333333333,11.5 1,11.5 L11.5,11.5 Z" fill="#000000" fill-rule="nonzero"/></g><text x="0" y="39" fill="#000000" font-size="5px" font-weight="bold" font-family="'Helvetica Neue', Helvetica, Arial-Unicode, Arial, Sans-serif">Created by Imam Maulana</text><text x="0" y="44" fill="#000000" font-size="5px" font-weight="bold" font-family="'Helvetica Neue', Helvetica, Arial-Unicode, Arial, Sans-serif">from the Noun Project</text></svg>